PathFileType	4	(x/y/z)	S02_P20_T17
DataRate	CameraRate	NumFrames	NumMarkers	Units	OrigDataRate	OrigDataStartFrame	OrigNumFrames
240	240	4	51	mm	240	299	341
Frame#	Time	Sternum			R.Acromium			L.Acromium			Top.Head			R.ASIS			L.ASIS			R.PSIS			L.PSIS			R.Great.Tro			L.Great.Tro			R.Iliac.Crest			L.Iliac.Crest			V.Sacral			R.Thigh.Upper.Post			R.Thigh.Lower.Ant			R.Thigh.Lower.Post			R.Thigh.Upper.Ant			R.Knee.Lat			R.Knee.Med			R.Shank.Upper.Post			R.Shank.Lower.Ant			R.Shank.Lower.Post			R.Shank.Upper.Ant			R.Ankle.Lat			R.Ankle.Med			R.Heel.Upper			R.Heel.Med			R.Heel.Lat			R.Toe.Lat			R.Toe.Med			R.Toe.Tip			L.Thigh.Upper.Post			L.Thigh.Lower.Ant			L.Thigh.Lower.Post			L.Thigh.Upper.Ant			L.Knee.Lat			L.Knee.Med			L.Shank.Upper.Post			L.Shank.Lower.Ant			L.Shank.Lower.Post			L.Shank.Upper.Ant			L.Ankle.Lat			L.Ankle.Med			L.Heel.Upper			L.Heel.Med			L.Heel.Lat			L.Toe.Lat			L.Toe.Med			L.Toe.Tip			Cervical.Spine			Back			
		X1	Y1	Z1	X2	Y2	Z2	X3	Y3	Z3	X4	Y4	Z4	X5	Y5	Z5	X6	Y6	Z6	X7	Y7	Z7	X8	Y8	Z8	X9	Y9	Z9	X10	Y10	Z10	X11	Y11	Z11	X12	Y12	Z12	X13	Y13	Z13	X14	Y14	Z14	X15	Y15	Z15	X16	Y16	Z16	X17	Y17	Z17	X18	Y18	Z18	X19	Y19	Z19	X20	Y20	Z20	X21	Y21	Z21	X22	Y22	Z22	X23	Y23	Z23	X24	Y24	Z24	X25	Y25	Z25	X26	Y26	Z26	X27	Y27	Z27	X28	Y28	Z28	X29	Y29	Z29	X30	Y30	Z30	X31	Y31	Z31	X32	Y32	Z32	X33	Y33	Z33	X34	Y34	Z34	X35	Y35	Z35	X36	Y36	Z36	X37	Y37	Z37	X38	Y38	Z38	X39	Y39	Z39	X40	Y40	Z40	X41	Y41	Z41	X42	Y42	Z42	X43	Y43	Z43	X44	Y44	Z44	X45	Y45	Z45	X46	Y46	Z46	X47	Y47	Z47	X48	Y48	Z48	X49	Y49	Z49	X50	Y50	Z50	X51	Y51	Z51	

299	1.2417	400.28	1108.3	315.81	283.65	1344.5	445.33	306.84	1341.3	152.93	358.19	1626.3	292.44	351.82	937.62	410.95	365.09	915.31	205.14	145.87	972.61	355.08	140.95	975.5	281.51	298.91	834.64	506.19	230.03	839.95	116.49	252.77	985.23	466.8	246.6	968.95	136.46	117.29	925.98	313.44	397.57	645.25	495.42	479.24	597.77	456.5	420.9	559.26	476.93	451.23	681.99	472	464.18	495.93	462.9	460.58	481.46	321.21	390.64	290.56	444.48	467.07	211.99	434.34	400.14	218.31	436.12	462.27	280.41	450.02	419.69	119.63	426.09	438.14	137.57	343.76	365.62	106.15	363.41	383.05	76.602	335.38	365.17	72.125	396.56	519.95	62.484	457.09	563.91	65.727	356.78	603.84	89.978	418.89	169.09	617.47	154.41	230.39	526.39	164.8	153.11	531.27	180.68	239.89	618.25	140.27	196.37	450.54	176.57	187.32	454.47	315.78	78.395	298.82	182.14	130.19	200.74	200.24	62.737	228.22	200.35	139.22	274.94	182.35	66.158	108.05	217.41	77.995	101.98	298.12	3.3016	75.259	250.2	10.727	48.14	283.26	7.8102	47.935	221.6	173.38	34.782	191.41	195.43	44.365	301.61	256.12	56.683	254.61	221.72	1402.5	292.63	144.39	1152.9	291.74
300	1.2458	405.57	1106.9	316.24	288.63	1343.2	445.63	312.59	1340.2	153.44	363.54	1625.2	292.95	357.33	936.49	411.24	370.12	913.83	205.26	151.11	971.28	355.65	146.07	974.15	282.1	304.7	833.42	506.49	234.51	839.25	116.69	258.18	984.09	467.13	251.51	967.56	136.79	122.53	924.59	314.08	403.23	643.99	495.31	484.5	596.38	455.75	426.32	557.94	476.83	456.63	680.67	471.2	469.6	494.72	462.42	464.97	479.88	320.55	400.35	287.88	444.61	478.64	211.05	433.96	411.49	215.81	436.06	472.35	279.39	449.7	433.29	117.23	425.89	450.93	135.7	343.51	379.16	102.63	363.55	397.07	73.524	335.33	379.6	68.493	396.55	534.95	62.032	456.19	578.33	66.586	355.69	618.1	91.515	417.65	172.81	617.25	154.57	233.52	525.77	165.04	156.26	531.15	180.87	243.63	617.57	140.52	198.93	450.05	176.74	189.46	454.17	315.97	79.86	299.02	182.21	131.08	200.66	200.27	63.816	228.58	200.32	140.61	274.79	182.4	66.393	108.26	217.47	78.178	102.17	298.14	3.3712	75.49	250.17	10.744	48.395	283.26	7.8249	48.123	221.6	173.4	34.718	191.4	195.49	44.308	301.6	256.2	56.527	254.59	227.05	1401.4	292.85	149.72	1151.8	291.59
301	1.25	410.88	1105.5	316.68	293.65	1341.9	445.95	318.32	1339.1	153.98	368.89	1624	293.49	362.87	935.29	411.53	375.16	912.3	205.36	156.37	969.9	356.25	151.21	972.76	282.72	310.5	832.1	506.78	238.99	838.5	116.92	263.61	982.89	467.5	256.43	966.12	137.12	127.79	923.16	314.72	408.87	642.65	495.24	489.74	594.9	455.03	431.72	556.54	476.74	462.01	679.25	470.45	475.01	493.45	461.93	469.3	478.21	319.87	409.82	285.31	444.74	489.81	210.13	433.55	422.49	213.43	435.99	482.16	278.38	449.36	446.41	114.97	425.65	463.21	133.95	343.22	392.21	99.315	363.68	410.53	70.651	335.27	393.51	65.096	396.54	549.38	61.625	455.21	592.12	67.433	354.5	631.77	92.988	416.31	176.66	616.94	154.71	236.82	525.11	165.27	159.58	530.94	181.05	247.5	616.85	140.77	201.68	449.5	176.93	191.82	453.81	316.16	81.466	299.21	182.27	132.06	200.55	200.3	64.988	228.94	200.28	142.11	274.61	182.45	66.652	108.5	217.52	78.373	102.38	298.16	3.4479	75.758	250.12	10.76	48.689	283.25	7.8402	48.338	221.58	173.41	34.649	191.39	195.54	44.246	301.58	256.29	56.363	254.56	232.37	1400.2	293.1	155.05	1150.6	291.47
302	1.2542	416.21	1104	317.13	298.69	1340.5	446.3	324.04	1338	154.54	374.24	1622.9	294.06	368.43	934.04	411.83	380.21	910.72	205.43	161.65	968.47	356.85	156.37	971.34	283.35	316.32	830.66	507.06	243.5	837.71	117.2	269.06	981.63	467.89	261.36	964.65	137.45	133.06	921.68	315.38	414.5	641.22	495.19	494.96	593.34	454.35	437.09	555.06	476.65	467.39	677.76	469.75	480.43	492.12	461.43	473.59	476.49	319.17	419.02	282.85	444.85	500.57	209.23	433.1	433.11	211.17	435.9	491.65	277.38	448.98	459.01	112.86	425.38	474.97	132.3	342.9	404.71	96.216	363.8	423.4	67.97	335.19	406.85	61.931	396.52	563.19	61.245	454.18	605.25	68.231	353.24	644.82	94.365	414.87	180.64	616.55	154.83	240.28	524.4	165.52	163.06	530.65	181.22	251.5	616.08	141.02	204.62	448.89	177.13	194.39	453.39	316.36	83.216	299.41	182.32	133.11	200.42	200.32	66.258	229.3	200.25	143.74	274.39	182.51	66.937	108.76	217.55	78.585	102.63	298.17	3.5339	76.068	250.07	10.777	49.03	283.23	7.8578	48.589	221.56	173.43	34.574	191.38	195.59	44.182	301.55	256.38	56.19	254.54	237.69	1399.1	293.38	160.39	1149.5	291.38
